<svg width="22" height="22" viewBox="0 0 22 22" fill="none" xmlns="http://www.w3.org/2000/svg">
<path d="M11 11.9166C11.5063 11.9166 11.9167 11.5062 11.9167 10.9999C11.9167 10.4937 11.5063 10.0833 11 10.0833C10.4938 10.0833 10.0834 10.4937 10.0834 10.9999C10.0834 11.5062 10.4938 11.9166 11 11.9166Z" fill="#060518" stroke="#060518" stroke-width="2" stroke-linecap="round" stroke-linejoin="round"/>
<path d="M11 5.50008C11.5063 5.50008 11.9167 5.08968 11.9167 4.58341C11.9167 4.07715 11.5063 3.66675 11 3.66675C10.4938 3.66675 10.0834 4.07715 10.0834 4.58341C10.0834 5.08968 10.4938 5.50008 11 5.50008Z" fill="#060518" stroke="#060518" stroke-width="2" stroke-linecap="round" stroke-linejoin="round"/>
<path d="M11 18.3333C11.5063 18.3333 11.9167 17.9229 11.9167 17.4167C11.9167 16.9104 11.5063 16.5 11 16.5C10.4938 16.5 10.0834 16.9104 10.0834 17.4167C10.0834 17.9229 10.4938 18.3333 11 18.3333Z" fill="#060518" stroke="#060518" stroke-width="2" stroke-linecap="round" stroke-linejoin="round"/>
</svg>
